REM DIRINDEX 1\3,1\2\4,1\2\5,1\2\6
REM DIRNAME folder01,folder02,folder03,folder04,folder05,folder06
TITLE ""
FILE "157.mp3" MP3
  TRACK 01 AUDIO
    TITLE "4:cjc137_7058"
    INDEX 01 00:00:00
  TRACK 02 AUDIO
    TITLE "0:"
    INDEX 01 00:01:28
  TRACK 03 AUDIO
    TITLE "6:cjc137_7059"
    INDEX 01 00:01:36
  TRACK 04 AUDIO
    TITLE "0:"
    INDEX 01 00:02:55
  TRACK 05 AUDIO
    TITLE "5:cjc137_7060"
    INDEX 01 00:02:59
  TRACK 06 AUDIO
    TITLE "0:"
    INDEX 01 00:04:13
  TRACK 07 AUDIO
    TITLE "4:cjc137_7061"
    INDEX 01 00:05:26
  TRACK 08 AUDIO
    TITLE "0:"
    INDEX 01 00:06:45
  TRACK 09 AUDIO
    TITLE "6:cjc137_7062"
    INDEX 01 00:06:53
  TRACK 10 AUDIO
    TITLE "0:"
    INDEX 01 00:08:19
  TRACK 11 AUDIO
    TITLE "5:cjc137_7063"
    INDEX 01 00:08:24
  TRACK 12 AUDIO
    TITLE "0:"
    INDEX 01 00:09:42
  TRACK 13 AUDIO
    TITLE "4:cjc137_7064"
    INDEX 01 00:10:53
  TRACK 14 AUDIO
    TITLE "0:"
    INDEX 01 00:12:12
  TRACK 15 AUDIO
    TITLE "6:cjc137_7065"
    INDEX 01 00:12:16
  TRACK 16 AUDIO
    TITLE "0:"
    INDEX 01 00:13:18
  TRACK 17 AUDIO
    TITLE "5:cjc137_7066"
    INDEX 01 00:13:26
  TRACK 18 AUDIO
    TITLE "0:"
    INDEX 01 00:14:60
  TRACK 19 AUDIO
    TITLE "4:cjc137_7067"
    INDEX 01 00:15:68
  TRACK 20 AUDIO
    TITLE "0:"
    INDEX 01 00:17:39
  TRACK 21 AUDIO
    TITLE "6:cjc137_7068"
    INDEX 01 00:17:45
  TRACK 22 AUDIO
    TITLE "0:"
    INDEX 01 00:19:13
  TRACK 23 AUDIO
    TITLE "5:cjc137_7069"
    INDEX 01 00:19:20
  TRACK 24 AUDIO
    TITLE "0:"
    INDEX 01 00:20:67
  TRACK 25 AUDIO
    TITLE "4:cjc137_7070"
    INDEX 01 00:21:74
  TRACK 26 AUDIO
    TITLE "0:"
    INDEX 01 00:23:28
  TRACK 27 AUDIO
    TITLE "6:cjc137_7071"
    INDEX 01 00:23:32
  TRACK 28 AUDIO
    TITLE "0:"
    INDEX 01 00:25:01
  TRACK 29 AUDIO
    TITLE "5:cjc137_7072"
    INDEX 01 00:25:07
  TRACK 30 AUDIO
    TITLE "0:"
    INDEX 01 00:26:36
  TRACK 31 AUDIO
    TITLE "4:cjc137_7073"
    INDEX 01 00:27:43
  TRACK 32 AUDIO
    TITLE "0:"
    INDEX 01 00:28:60
  TRACK 33 AUDIO
    TITLE "6:cjc137_7074"
    INDEX 01 00:28:68
  TRACK 34 AUDIO
    TITLE "0:"
    INDEX 01 00:30:01
  TRACK 35 AUDIO
    TITLE "5:cjc137_7075"
    INDEX 01 00:30:05
  TRACK 36 AUDIO
    TITLE "0:"
    INDEX 01 00:31:24
  TRACK 37 AUDIO
    TITLE "4:cjc137_7076"
    INDEX 01 00:32:33
  TRACK 38 AUDIO
    TITLE "0:"
    INDEX 01 00:34:10
  TRACK 39 AUDIO
    TITLE "6:cjc137_7077"
    INDEX 01 00:34:14
  TRACK 40 AUDIO
    TITLE "0:"
    INDEX 01 00:35:31
  TRACK 41 AUDIO
    TITLE "5:cjc137_7078"
    INDEX 01 00:35:35
  TRACK 42 AUDIO
    TITLE "0:"
    INDEX 01 00:37:12
  TRACK 43 AUDIO
    TITLE "4:cjc137_7079"
    INDEX 01 00:38:20
  TRACK 44 AUDIO
    TITLE "0:"
    INDEX 01 00:39:60
  TRACK 45 AUDIO
    TITLE "6:cjc137_7080"
    INDEX 01 00:39:64
  TRACK 46 AUDIO
    TITLE "0:"
    INDEX 01 00:42:00
  TRACK 47 AUDIO
    TITLE "5:cjc137_7081"
    INDEX 01 00:42:06
  TRACK 48 AUDIO
    TITLE "0:"
    INDEX 01 00:43:48
  TRACK 49 AUDIO
    TITLE "4:cjc137_7082"
    INDEX 01 00:44:54
  TRACK 50 AUDIO
    TITLE "0:"
    INDEX 01 00:46:25
  TRACK 51 AUDIO
    TITLE "6:cjc137_7083"
    INDEX 01 00:46:29
  TRACK 52 AUDIO
    TITLE "0:"
    INDEX 01 00:48:24
  TRACK 53 AUDIO
    TITLE "5:cjc137_7084"
    INDEX 01 00:48:32
  TRACK 54 AUDIO
    TITLE "0:"
    INDEX 01 00:50:03
  TRACK 55 AUDIO
    TITLE "4:cjc137_7085"
    INDEX 01 00:51:11
  TRACK 56 AUDIO
    TITLE "0:"
    INDEX 01 00:52:51
  TRACK 57 AUDIO
    TITLE "6:cjc137_7086"
    INDEX 01 00:52:59
  TRACK 58 AUDIO
    TITLE "0:"
    INDEX 01 00:54:66
  TRACK 59 AUDIO
    TITLE "5:cjc137_7087"
    INDEX 01 00:54:74
  TRACK 60 AUDIO
    TITLE "0:"
    INDEX 01 00:56:37
  TRACK 61 AUDIO
    TITLE "4:cjc137_7088"
    INDEX 01 00:57:48
  TRACK 62 AUDIO
    TITLE "0:"
    INDEX 01 00:58:73
  TRACK 63 AUDIO
    TITLE "6:cjc137_7089"
    INDEX 01 00:59:14
  TRACK 64 AUDIO
    TITLE "0:"
    INDEX 01 01:01:15
  TRACK 65 AUDIO
    TITLE "5:cjc137_7090"
    INDEX 01 01:01:19
  TRACK 66 AUDIO
    TITLE "0:"
    INDEX 01 01:02:42
  TRACK 67 AUDIO
    TITLE "4:cjc137_7091"
    INDEX 01 01:03:61
  TRACK 68 AUDIO
    TITLE "0:"
    INDEX 01 01:05:30
  TRACK 69 AUDIO
    TITLE "6:cjc137_7092"
    INDEX 01 01:05:38
  TRACK 70 AUDIO
    TITLE "0:"
    INDEX 01 01:07:55
  TRACK 71 AUDIO
    TITLE "5:cjc137_7093"
    INDEX 01 01:07:63
  TRACK 72 AUDIO
    TITLE "0:"
    INDEX 01 01:09:30
  TRACK 73 AUDIO
    TITLE "4:cjc137_7094"
    INDEX 01 01:10:39
  TRACK 74 AUDIO
    TITLE "0:"
    INDEX 01 01:12:09
  TRACK 75 AUDIO
    TITLE "6:cjc137_7095"
    INDEX 01 01:12:15
  TRACK 76 AUDIO
    TITLE "0:"
    INDEX 01 01:14:19
  TRACK 77 AUDIO
    TITLE "5:cjc137_7096"
    INDEX 01 01:14:23
  TRACK 78 AUDIO
    TITLE "0:"
    INDEX 01 01:15:66
  TRACK 79 AUDIO
    TITLE "4:cjc137_7097"
    INDEX 01 01:16:73
  TRACK 80 AUDIO
    TITLE "0:"
    INDEX 01 01:18:51
  TRACK 81 AUDIO
    TITLE "6:cjc137_7098"
    INDEX 01 01:18:54
  TRACK 82 AUDIO
    TITLE "0:"
    INDEX 01 01:20:63
  TRACK 83 AUDIO
    TITLE "5:cjc137_7099"
    INDEX 01 01:20:69
  TRACK 84 AUDIO
    TITLE "0:"
    INDEX 01 01:22:46
  TRACK 85 AUDIO
    TITLE "4:cjc137_7100"
    INDEX 01 01:23:52
  TRACK 86 AUDIO
    TITLE "0:"
    INDEX 01 01:25:09
  TRACK 87 AUDIO
    TITLE "6:cjc137_7101"
    INDEX 01 01:25:19
  TRACK 88 AUDIO
    TITLE "0:"
    INDEX 01 01:27:10
  TRACK 89 AUDIO
    TITLE "5:cjc137_7102"
    INDEX 01 01:27:14
  TRACK 90 AUDIO
    TITLE "0:"
    INDEX 01 01:28:49
  TRACK 91 AUDIO
    TITLE "4:cjc137_7103"
    INDEX 01 01:29:58
  TRACK 92 AUDIO
    TITLE "0:"
    INDEX 01 01:31:10
  TRACK 93 AUDIO
    TITLE "6:cjc137_7104"
    INDEX 01 01:31:16
  TRACK 94 AUDIO
    TITLE "0:"
    INDEX 01 01:32:51
  TRACK 95 AUDIO
    TITLE "5:cjc137_7105"
    INDEX 01 01:32:57
  TRACK 96 AUDIO
    TITLE "0:"
    INDEX 01 01:34:06
  TRACK 97 AUDIO
    TITLE "4:cjc137_7106"
    INDEX 01 01:35:18
  TRACK 98 AUDIO
    TITLE "0:"
    INDEX 01 01:36:45
  TRACK 99 AUDIO
    TITLE "6:cjc137_7107"
    INDEX 01 01:36:56
  TRACK 100 AUDIO
    TITLE "0:"
    INDEX 01 01:37:69
  TRACK 101 AUDIO
    TITLE "5:cjc137_7108"
    INDEX 01 01:38:04
  TRACK 102 AUDIO
    TITLE "0:"
    INDEX 01 01:39:33
  TRACK 103 AUDIO
    TITLE "4:cjc137_7109"
    INDEX 01 01:40:46
  TRACK 104 AUDIO
    TITLE "0:"
    INDEX 01 01:42:00
  TRACK 105 AUDIO
    TITLE "6:cjc137_7110"
    INDEX 01 01:42:08
  TRACK 106 AUDIO
    TITLE "0:"
    INDEX 01 01:43:60
  TRACK 107 AUDIO
    TITLE "5:cjc137_7111"
    INDEX 01 01:43:68
  TRACK 108 AUDIO
    TITLE "0:"
    INDEX 01 01:45:22
  TRACK 109 AUDIO
    TITLE "4:cjc137_7112"
    INDEX 01 01:46:31
  TRACK 110 AUDIO
    TITLE "0:"
    INDEX 01 01:47:66
  TRACK 111 AUDIO
    TITLE "6:cjc137_7113"
    INDEX 01 01:47:70
  TRACK 112 AUDIO
    TITLE "0:"
    INDEX 01 01:49:37
  TRACK 113 AUDIO
    TITLE "5:cjc137_7114"
    INDEX 01 01:49:41
  TRACK 114 AUDIO
    TITLE "0:"
    INDEX 01 01:51:01
  TRACK 115 AUDIO
    TITLE "4:cjc137_7115"
    INDEX 01 01:52:10
  TRACK 116 AUDIO
    TITLE "0:"
    INDEX 01 01:53:33
  TRACK 117 AUDIO
    TITLE "6:cjc137_7116"
    INDEX 01 01:53:41
  TRACK 118 AUDIO
    TITLE "0:"
    INDEX 01 01:55:54
  TRACK 119 AUDIO
    TITLE "5:cjc137_7117"
    INDEX 01 01:55:60
  TRACK 120 AUDIO
    TITLE "0:"
    INDEX 01 01:57:09
  TRACK 121 AUDIO
    TITLE "4:cjc137_7118"
    INDEX 01 01:58:17
  TRACK 122 AUDIO
    TITLE "0:"
    INDEX 01 01:59:48
  TRACK 123 AUDIO
    TITLE "6:cjc137_7119"
    INDEX 01 01:59:53
  TRACK 124 AUDIO
    TITLE "0:"
    INDEX 01 02:01:07
  TRACK 125 AUDIO
    TITLE "5:cjc137_7120"
    INDEX 01 02:01:13
  TRACK 126 AUDIO
    TITLE "0:"
    INDEX 01 02:02:42
  TRACK 127 AUDIO
    TITLE "4:cjc137_7121"
    INDEX 01 02:03:51
  TRACK 128 AUDIO
    TITLE "0:"
    INDEX 01 02:05:27
  TRACK 129 AUDIO
    TITLE "6:cjc137_7122"
    INDEX 01 02:05:36
  TRACK 130 AUDIO
    TITLE "0:"
    INDEX 01 02:06:55
  TRACK 131 AUDIO
    TITLE "5:cjc137_7123"
    INDEX 01 02:06:61
  TRACK 132 AUDIO
    TITLE "0:"
    INDEX 01 02:08:39
